<mxfile host="app.diagrams.net" agent="Mozilla/5.0 (Windows NT 10.0; Win64; x64) AppleWebKit/537.36 (KHTML, like Gecko) Chrome/127.0.0.0 Safari/537.36" version="24.7.5">
  <diagram name="Page-1" id="9sXMO7F1T7nSCZ4vp9A7">
    <mxGraphModel dx="998" dy="659" grid="1" gridSize="10" guides="1" tooltips="1" connect="1" arrows="1" fold="1" page="1" pageScale="1" pageWidth="850" pageHeight="1100" math="0" shadow="0">
      <root>
        <mxCell id="0" />
        <mxCell id="1" parent="0" />
        <mxCell id="MOg9VTGPfDZl-vBDxAIG-1" value="" style="shape=image;html=1;verticalAlign=top;verticalLabelPosition=bottom;labelBackgroundColor=#ffffff;imageAspect=0;aspect=fixed;image=https://cdn4.iconfinder.com/data/icons/transportation-and-vehicle/128/Transportation_And_Vehicle_3-03-128.png" vertex="1" parent="1">
          <mxGeometry x="110" y="250" width="60" height="60" as="geometry" />
        </mxCell>
        <mxCell id="MOg9VTGPfDZl-vBDxAIG-15" style="edgeStyle=orthogonalEdgeStyle;rounded=0;orthogonalLoop=1;jettySize=auto;html=1;startArrow=none;startFill=0;dashed=1;flowAnimation=1;" edge="1" parent="1">
          <mxGeometry relative="1" as="geometry">
            <mxPoint x="180" y="258.0344827586207" as="sourcePoint" />
            <mxPoint x="250" y="258.0344827586207" as="targetPoint" />
            <Array as="points">
              <mxPoint x="220" y="258" />
              <mxPoint x="220" y="258" />
            </Array>
          </mxGeometry>
        </mxCell>
        <mxCell id="MOg9VTGPfDZl-vBDxAIG-2" value="" style="html=1;strokeWidth=1;shadow=0;dashed=0;shape=mxgraph.ios7.misc.bluetooth;fillColor=#007AFF;strokeColor=none;buttonText=;strokeColor2=#222222;fontColor=#222222;fontSize=8;verticalLabelPosition=bottom;verticalAlign=top;align=center;sketch=0;" vertex="1" parent="1">
          <mxGeometry x="155" y="250" width="25" height="25" as="geometry" />
        </mxCell>
        <mxCell id="MOg9VTGPfDZl-vBDxAIG-19" style="edgeStyle=orthogonalEdgeStyle;rounded=0;orthogonalLoop=1;jettySize=auto;html=1;curved=1;dashed=1;flowAnimation=1;fillColor=#f8cecc;strokeColor=#b85450;" edge="1" parent="1" source="MOg9VTGPfDZl-vBDxAIG-4" target="MOg9VTGPfDZl-vBDxAIG-2">
          <mxGeometry relative="1" as="geometry">
            <Array as="points">
              <mxPoint x="210" y="270" />
              <mxPoint x="210" y="270" />
            </Array>
          </mxGeometry>
        </mxCell>
        <mxCell id="MOg9VTGPfDZl-vBDxAIG-4" value="" style="html=1;strokeWidth=1;shadow=0;dashed=0;shape=mxgraph.ios7.misc.bluetooth;fillColor=#007AFF;strokeColor=none;buttonText=;strokeColor2=#222222;fontColor=#222222;fontSize=8;verticalLabelPosition=bottom;verticalAlign=top;align=center;sketch=0;" vertex="1" parent="1">
          <mxGeometry x="250" y="250" width="25" height="25" as="geometry" />
        </mxCell>
        <mxCell id="MOg9VTGPfDZl-vBDxAIG-8" style="edgeStyle=orthogonalEdgeStyle;rounded=0;orthogonalLoop=1;jettySize=auto;html=1;curved=1;dashed=1;startArrow=none;startFill=0;flowAnimation=1;" edge="1" parent="1" source="MOg9VTGPfDZl-vBDxAIG-5" target="MOg9VTGPfDZl-vBDxAIG-7">
          <mxGeometry relative="1" as="geometry">
            <Array as="points">
              <mxPoint x="290" y="180" />
            </Array>
          </mxGeometry>
        </mxCell>
        <mxCell id="MOg9VTGPfDZl-vBDxAIG-5" value="" style="shape=image;html=1;verticalAlign=top;verticalLabelPosition=bottom;labelBackgroundColor=#ffffff;imageAspect=0;aspect=fixed;image=https://cdn4.iconfinder.com/data/icons/computer-and-web-2/500/Network-128.png" vertex="1" parent="1">
          <mxGeometry x="260" y="240" width="60" height="60" as="geometry" />
        </mxCell>
        <mxCell id="MOg9VTGPfDZl-vBDxAIG-14" style="edgeStyle=orthogonalEdgeStyle;rounded=0;orthogonalLoop=1;jettySize=auto;html=1;curved=1;dashed=1;flowAnimation=1;" edge="1" parent="1" source="MOg9VTGPfDZl-vBDxAIG-7" target="MOg9VTGPfDZl-vBDxAIG-9">
          <mxGeometry relative="1" as="geometry" />
        </mxCell>
        <mxCell id="MOg9VTGPfDZl-vBDxAIG-17" style="edgeStyle=orthogonalEdgeStyle;rounded=0;orthogonalLoop=1;jettySize=auto;html=1;curved=1;dashed=1;flowAnimation=1;fillColor=#f8cecc;strokeColor=#b85450;" edge="1" parent="1" source="MOg9VTGPfDZl-vBDxAIG-7" target="MOg9VTGPfDZl-vBDxAIG-5">
          <mxGeometry relative="1" as="geometry">
            <Array as="points">
              <mxPoint x="290" y="160" />
            </Array>
          </mxGeometry>
        </mxCell>
        <mxCell id="MOg9VTGPfDZl-vBDxAIG-7" value="" style="image;sketch=0;aspect=fixed;html=1;points=[];align=center;fontSize=12;image=img/lib/mscae/Cache_Redis_Product.svg;" vertex="1" parent="1">
          <mxGeometry x="350" y="150" width="50" height="42" as="geometry" />
        </mxCell>
        <mxCell id="MOg9VTGPfDZl-vBDxAIG-12" style="edgeStyle=orthogonalEdgeStyle;rounded=0;orthogonalLoop=1;jettySize=auto;html=1;entryX=0.5;entryY=0;entryDx=0;entryDy=0;curved=1;dashed=1;flowAnimation=1;" edge="1" parent="1" source="MOg9VTGPfDZl-vBDxAIG-9" target="MOg9VTGPfDZl-vBDxAIG-11">
          <mxGeometry relative="1" as="geometry" />
        </mxCell>
        <mxCell id="MOg9VTGPfDZl-vBDxAIG-16" style="edgeStyle=orthogonalEdgeStyle;rounded=0;orthogonalLoop=1;jettySize=auto;html=1;curved=1;dashed=1;flowAnimation=1;fillColor=#f8cecc;strokeColor=#b85450;" edge="1" parent="1" source="MOg9VTGPfDZl-vBDxAIG-9" target="MOg9VTGPfDZl-vBDxAIG-7">
          <mxGeometry relative="1" as="geometry" />
        </mxCell>
        <mxCell id="MOg9VTGPfDZl-vBDxAIG-9" value="" style="shape=image;verticalLabelPosition=bottom;labelBackgroundColor=default;verticalAlign=top;aspect=fixed;imageAspect=0;image=https://beam.apache.org/images/logos/full-color/name-right/beam-logo-full-color-name-right-1000.png;clipPath=inset(30% 0% 31.33% 0%);" vertex="1" parent="1">
          <mxGeometry x="425" y="254.53" width="80" height="30.933333333333334" as="geometry" />
        </mxCell>
        <mxCell id="MOg9VTGPfDZl-vBDxAIG-11" value="" style="shape=image;verticalLabelPosition=bottom;labelBackgroundColor=default;verticalAlign=top;aspect=fixed;imageAspect=0;image=https://miro.medium.com/v2/resize:fit:1198/1*MzpclhSFds7U6sWOeHzwjg.png;" vertex="1" parent="1">
          <mxGeometry x="320" y="330" width="124" height="28.77" as="geometry" />
        </mxCell>
      </root>
    </mxGraphModel>
  </diagram>
</mxfile>
